<svg width="512" height="512" viewBox="0 0 512 512" fill="none" xmlns="http://www.w3.org/2000/svg" xmlns:xlink="http://www.w3.org/1999/xlink" class=""><rect id="r4" width="512" height="512" x="0" y="0" rx="128" fill="url(#r5)" stroke="#FFFFFF" stroke-width="0" stroke-opacity="100%" paint-order="stroke"></rect><clipPath id="clip"><use xlink:href="#r4"></use></clipPath><defs><linearGradient id="r5" gradientUnits="userSpaceOnUse" gradientTransform="rotate(45)" style="transform-origin: center center 0px;"><stop stop-color="#00B4DB"></stop><stop offset="1" stop-color="#003357"></stop></linearGradient><radialGradient id="r6" cx="0" cy="0" r="1" gradientUnits="userSpaceOnUse" gradientTransform="translate(256) rotate(90) scale(512)"><stop stop-color="white"></stop><stop offset="1" stop-color="white" stop-opacity="0"></stop></radialGradient></defs><svg viewBox="0 0 24 24" fill="none" xmlns="http://www.w3.org/2000/svg" width="352" height="352" x="80" y="80" style="color: rgb(255, 255, 255);" alignment-baseline="middle"><path fill-rule="evenodd" clip-rule="evenodd" d="M4.125 3a1.125 1.125 0 0 0 0 2.25h8.25a1.125 1.125 0 0 0 0-2.25h-8.25Zm13.5 0a1.125 1.125 0 0 0 0 2.25h2.25a1.125 1.125 0 0 0 0-2.25h-2.25ZM12 19.875c0-.621.504-1.125 1.125-1.125h6.75a1.125 1.125 0 0 1 0 2.25h-6.75A1.125 1.125 0 0 1 12 19.875ZM4.125 18.75a1.125 1.125 0 0 0 0 2.25h3.75a1.125 1.125 0 0 0 0-2.25h-3.75ZM3 14.625c0-.621.504-1.125 1.125-1.125h6.75a1.125 1.125 0 0 1 0 2.25h-6.75A1.125 1.125 0 0 1 3 14.625ZM16.125 13.5a1.125 1.125 0 0 0 0 2.25h3.75a1.125 1.125 0 0 0 0-2.25h-3.75ZM3 9.375c0-.621.504-1.125 1.125-1.125h2.25a1.125 1.125 0 0 1 0 2.25h-2.25A1.125 1.125 0 0 1 3 9.375Zm8.625-1.125a1.125 1.125 0 0 0 0 2.25h8.25a1.125 1.125 0 0 0 0-2.25h-8.25Z" fill="currentColor"></path></svg></svg>